# xmcd CD database file
#
# Track frame offsets:
#	150
#	12882
#	24725
#	50025
#	75667
#	88675
#	101490
#	116725
#	139860
#	153845
#
# Disc length: 2274 seconds
#
# Revision: 0
# Processed by: cddbd v1.4PL0 Copyright (c) Steve Scherf et al.
# Submitted via: CDex 1.50Beta7
#
DISCID=7908e00a
DTITLE=Wanda Vick - Country at Heart
DYEAR=1995
DGENRE=Country
TTITLE0=Wild Rose
TTITLE1=Lonesome Fiddle Blues
TTITLE2=Wayfaring Stranger
TTITLE3=Bob Wills Medley
TTITLE4=Pontchartrain
TTITLE5=Limehouse Blues
TTITLE6=Happy Valley
TTITLE7=Sailing
TTITLE8=River Run
TTITLE9=Country Boy (Girl)
EXTD=YEAR: 1995
EXTT0=
EXTT1=
EXTT2=
EXTT3=
EXTT4=
EXTT5=
EXTT6=
EXTT7=
EXTT8=
EXTT9=
PLAYORDER=
